<svg width="26" height="26" viewBox="0 0 26 26" fill="none" xmlns="http://www.w3.org/2000/svg">
<path d="M23 22.879C23 23.1763 22.8829 23.4615 22.6746 23.6717C22.4662 23.8819 22.1836 24 21.8889 24H4.11111C3.81643 24 3.53381 23.8819 3.32544 23.6717C3.11706 23.4615 3 23.1763 3 22.879V11.0976C2.99988 10.9268 3.03846 10.7582 3.1128 10.6047C3.18713 10.4512 3.29524 10.3169 3.42889 10.212L12.3178 3.23618C12.5128 3.08311 12.7529 3 13 3C13.2471 3 13.4872 3.08311 13.6822 3.23618L22.5711 10.212C22.7048 10.3169 22.8129 10.4512 22.8872 10.6047C22.9615 10.7582 23.0001 10.9268 23 11.0976V22.879Z" fill="black"/>
</svg>
