<svg width="29" height="27" viewBox="0 0 29 27" fill="none" xmlns="http://www.w3.org/2000/svg">
<mask id="path-1-inside-1_10262_436" fill="white">
<path fill-rule="evenodd" clip-rule="evenodd" d="M14.4744 12.5C17.2358 12.5 19.4744 10.2614 19.4744 7.5C19.4744 4.73858 17.2358 2.5 14.4744 2.5C11.7129 2.5 9.47436 4.73858 9.47436 7.5C9.47436 10.2614 11.7129 12.5 14.4744 12.5ZM5.97436 14.9H5.54191L5.40515 15.3103L2.90515 22.8103L4.04357 23.1897L6.40682 16.1H22.5134L24.3946 23.1546L25.5541 22.8454L23.5541 15.3454L23.4353 14.9H22.9744H5.97436Z"/>
</mask>
<path d="M5.54191 14.9V13.9H4.82115L4.59322 14.5838L5.54191 14.9ZM5.40515 15.3103L6.35383 15.6265L6.35383 15.6265L5.40515 15.3103ZM2.90515 22.8103L1.95647 22.494L1.64024 23.4427L2.58892 23.7589L2.90515 22.8103ZM4.04357 23.1897L3.72734 24.1384L4.67603 24.4546L4.99225 23.506L4.04357 23.1897ZM6.40682 16.1V15.1H5.68606L5.45813 15.7838L6.40682 16.1ZM22.5134 16.1L23.4796 15.8423L23.2817 15.1H22.5134V16.1ZM24.3946 23.1546L23.4284 23.4123L23.686 24.3785L24.6523 24.1208L24.3946 23.1546ZM25.5541 22.8454L25.8118 23.8116L26.778 23.554L26.5203 22.5877L25.5541 22.8454ZM23.5541 15.3454L24.5203 15.0877L23.5541 15.3454ZM23.4353 14.9L24.4016 14.6423L24.2036 13.9H23.4353V14.9ZM18.4744 7.5C18.4744 9.70914 16.6835 11.5 14.4744 11.5V13.5C17.7881 13.5 20.4744 10.8137 20.4744 7.5H18.4744ZM14.4744 3.5C16.6835 3.5 18.4744 5.29086 18.4744 7.5H20.4744C20.4744 4.18629 17.7881 1.5 14.4744 1.5V3.5ZM10.4744 7.5C10.4744 5.29086 12.2652 3.5 14.4744 3.5V1.5C11.1607 1.5 8.47436 4.18629 8.47436 7.5H10.4744ZM14.4744 11.5C12.2652 11.5 10.4744 9.70914 10.4744 7.5H8.47436C8.47436 10.8137 11.1607 13.5 14.4744 13.5V11.5ZM5.54191 15.9H5.97436V13.9H5.54191V15.9ZM6.35383 15.6265L6.49059 15.2162L4.59322 14.5838L4.45647 14.994L6.35383 15.6265ZM3.85383 23.1265L6.35383 15.6265L4.45647 14.994L1.95647 22.494L3.85383 23.1265ZM4.3598 22.2411L3.22138 21.8616L2.58892 23.7589L3.72734 24.1384L4.3598 22.2411ZM5.45813 15.7838L3.09489 22.8735L4.99225 23.506L7.3555 16.4162L5.45813 15.7838ZM22.5134 15.1H6.40682V17.1H22.5134V15.1ZM25.3609 22.8969L23.4796 15.8423L21.5472 16.3577L23.4284 23.4123L25.3609 22.8969ZM25.2964 21.8792L24.137 22.1884L24.6523 24.1208L25.8118 23.8116L25.2964 21.8792ZM22.5879 15.6031L24.5879 23.1031L26.5203 22.5877L24.5203 15.0877L22.5879 15.6031ZM22.4691 15.1577L22.5879 15.6031L24.5203 15.0877L24.4016 14.6423L22.4691 15.1577ZM22.9744 15.9H23.4353V13.9H22.9744V15.9ZM5.97436 15.9H22.9744V13.9H5.97436V15.9Z" fill="black" mask="url(#path-1-inside-1_10262_436)"/>
</svg>
